<svg width="360" height="200" viewBox="0 0 360 200" fill="none" xmlns="http://www.w3.org/2000/svg" role="img" aria-labelledby="title desc">
  <title id="title">Top Languages</title>
  <desc id="desc">Generated GitHub profile card for prefect12.</desc>
  <rect x="0.5" y="0.5" width="359" height="199" rx="6" fill="#111217" stroke="#30363D"/>
  <text x="24" y="34" fill="#FF6E96" font-family="Segoe UI, Ubuntu, sans-serif" font-size="18" font-weight="700">Top Languages</text>
  
  <clipPath id="barClip"><rect x="24" y="54" width="312" height="10" rx="5"/></clipPath>
  <rect x="24" y="54" width="312" height="10" rx="5" fill="#21262D"/>
  <g clip-path="url(#barClip)">
  <rect x="24" y="54" width="147.17" height="10" fill="#F05138"/>
  <rect x="171.17206157179734" y="54" width="56.67" height="10" fill="#3572A5"/>
  <rect x="227.84095554064945" y="54" width="37.98" height="10" fill="#E34C26"/>
  <rect x="265.8164356801313" y="54" width="28.34" height="10" fill="#DA5B0B"/>
  <rect x="294.1525633763" y="54" width="20.25" height="10" fill="#3178C6"/>
  <rect x="314.4005011106704" y="54" width="8.11" height="10" fill="#F1E05A"/>
  </g>
  <circle cx="30" cy="88" r="4" fill="#F05138"/>
  <text x="42" y="92" fill="#C9D1D9" font-family="Segoe UI, Ubuntu, sans-serif" font-size="12">Swift</text>
  <text x="292" y="92" fill="#8B949E" font-family="Segoe UI, Ubuntu, sans-serif" font-size="12" text-anchor="end">47.2%</text>
  <circle cx="30" cy="106" r="4" fill="#3572A5"/>
  <text x="42" y="110" fill="#C9D1D9" font-family="Segoe UI, Ubuntu, sans-serif" font-size="12">Python</text>
  <text x="292" y="110" fill="#8B949E" font-family="Segoe UI, Ubuntu, sans-serif" font-size="12" text-anchor="end">18.2%</text>
  <circle cx="30" cy="124" r="4" fill="#E34C26"/>
  <text x="42" y="128" fill="#C9D1D9" font-family="Segoe UI, Ubuntu, sans-serif" font-size="12">HTML</text>
  <text x="292" y="128" fill="#8B949E" font-family="Segoe UI, Ubuntu, sans-serif" font-size="12" text-anchor="end">12.2%</text>
  <circle cx="30" cy="142" r="4" fill="#DA5B0B"/>
  <text x="42" y="146" fill="#C9D1D9" font-family="Segoe UI, Ubuntu, sans-serif" font-size="12">Jupyter Notebook</text>
  <text x="292" y="146" fill="#8B949E" font-family="Segoe UI, Ubuntu, sans-serif" font-size="12" text-anchor="end">9.1%</text>
  <circle cx="30" cy="160" r="4" fill="#3178C6"/>
  <text x="42" y="164" fill="#C9D1D9" font-family="Segoe UI, Ubuntu, sans-serif" font-size="12">TypeScript</text>
  <text x="292" y="164" fill="#8B949E" font-family="Segoe UI, Ubuntu, sans-serif" font-size="12" text-anchor="end">6.5%</text>
  <circle cx="30" cy="178" r="4" fill="#F1E05A"/>
  <text x="42" y="182" fill="#C9D1D9" font-family="Segoe UI, Ubuntu, sans-serif" font-size="12">JavaScript</text>
  <text x="292" y="182" fill="#8B949E" font-family="Segoe UI, Ubuntu, sans-serif" font-size="12" text-anchor="end">2.6%</text>
</svg>
